<?xml version="1.0" standalone="no"?>
<!DOCTYPE svg PUBLIC "-//W3C//DTD SVG 20010904//EN"
 "http://www.w3.org/TR/2001/REC-SVG-20010904/DTD/svg10.dtd">
<svg version="1.0" xmlns="http://www.w3.org/2000/svg"
 width="724.000000pt" height="724.000000pt" viewBox="0 0 724.000000 724.000000"
 preserveAspectRatio="xMidYMid meet">
<metadata>
Created by potrace 1.14, written by Peter Selinger 2001-2017
</metadata>
<g transform="translate(0.000000,724.000000) scale(0.100000,-0.100000)"
fill="#000000" stroke="none">
<path d="M3415 7195 c4 -11 8 -35 8 -52 0 -18 5 -33 10 -33 5 0 5 -6 -2 -13
-6 -8 -9 -16 -7 -18 7 -6 17 -58 22 -110 3 -36 1 -48 -11 -53 -8 -3 -15 -2
-15 2 0 4 -20 20 -45 35 -25 16 -45 33 -45 39 0 5 -4 7 -9 3 -5 -3 -17 5 -25
17 -9 12 -16 19 -16 15 0 -4 -17 3 -37 16 -53 33 -143 77 -143 70 0 -3 -7 0
-15 7 -8 7 -15 9 -15 5 0 -4 -6 -2 -14 4 -8 6 -18 11 -22 10 -5 -1 -16 0 -24
3 -72 26 -116 32 -234 32 -137 -1 -186 -5 -186 -14 0 -3 -10 -7 -22 -8 -25 -2
-40 -6 -76 -17 -20 -6 -23 -13 -18 -34 4 -14 9 -39 12 -56 3 -16 12 -42 19
-58 8 -15 9 -25 3 -21 -5 3 -2 -8 7 -25 9 -17 13 -36 10 -40 -3 -5 0 -11 6
-13 9 -3 16 -27 21 -75 1 -7 6 -13 11 -13 5 0 7 -7 3 -15 -3 -8 -1 -15 4 -15
6 0 10 -5 10 -11 0 -5 9 -29 19 -53 27 -57 29 -72 11 -67 -8 2 -33 6 -55 8
-22 3 -46 10 -52 15 -9 7 -13 7 -13 0 0 -6 -12 -7 -33 -2 -18 4 -80 6 -138 4
-130 -4 -132 -5 -141 -18 -5 -8 -8 -7 -8 2 0 10 -5 10 -20 2 -11 -6 -20 -8
-20 -5 0 3 -9 1 -20 -5 -15 -8 -20 -8 -20 2 0 9 -3 9 -8 2 -4 -6 -29 -17 -57
-24 -27 -8 -65 -22 -83 -32 -20 -11 -31 -13 -26 -6 4 7 -2 5 -13 -4 -11 -10
-27 -18 -36 -18 -9 0 -17 -4 -17 -9 0 -5 -16 -15 -35 -21 -19 -6 -35 -16 -35
-21 0 -5 -6 -9 -13 -9 -8 0 -22 -9 -32 -20 -10 -11 -24 -20 -32 -20 -7 0 -13
-4 -13 -9 0 -5 -9 -13 -20 -16 -11 -4 -18 -11 -15 -16 4 -5 1 -9 -5 -9 -6 0
-18 -7 -26 -15 -8 -8 -24 -21 -35 -29 -19 -13 -20 -17 -8 -51 7 -20 20 -44 29
-53 8 -10 16 -23 18 -30 5 -27 70 -117 120 -168 12 -13 22 -28 22 -34 0 -5 3
-10 8 -10 4 0 26 -17 48 -38 66 -59 104 -87 115 -84 5 1 9 -2 9 -8 0 -18 190
-109 263 -126 4 -1 8 -2 10 -4 5 -4 43 -12 65 -14 12 0 22 -4 22 -8 0 -4 8 -7
18 -6 40 1 127 -13 136 -22 7 -7 1 -18 -18 -35 -16 -14 -33 -25 -38 -25 -4 0
-8 -8 -8 -17 0 -9 -3 -14 -6 -10 -4 3 -67 -55 -140 -130 -149 -151 -147 -145
-73 -204 23 -19 47 -40 54 -46 8 -7 18 -13 23 -13 6 0 12 -4 14 -8 4 -9 141
-71 166 -75 9 -1 23 -6 30 -10 6 -5 12 -6 12 -3 0 2 24 -1 53 -8 54 -13 279
-14 327 -3 14 4 44 9 65 11 22 3 54 9 70 13 37 11 68 6 61 -10 -3 -7 -9 -20
-12 -29 -4 -10 -11 -18 -16 -18 -5 0 -6 -4 -3 -10 3 -5 2 -10 -3 -10 -5 0 -15
-12 -22 -27 -8 -16 -25 -43 -38 -60 -12 -18 -20 -33 -16 -33 4 0 -2 -11 -15
-24 -17 -18 -30 -22 -59 -19 -20 2 -43 5 -49 8 -7 2 -13 1 -13 -3 0 -4 -19 -7
-42 -7 -24 0 -47 -2 -53 -4 -5 -3 -14 -6 -20 -7 -5 -1 -23 -5 -40 -9 -16 -3
-37 -7 -44 -9 -8 -1 -17 -8 -19 -14 -2 -6 -10 -8 -18 -5 -8 3 -14 -1 -14 -8 0
-7 -3 -9 -6 -6 -9 9 -78 -29 -134 -73 -52 -42 -114 -100 -106 -100 4 0 -6 -12
-21 -27 -16 -16 -29 -30 -29 -33 -1 -3 -12 -25 -25 -50 -12 -25 -22 -48 -21
-52 1 -5 -3 -8 -10 -8 -6 0 -8 -3 -5 -6 3 -4 2 -14 -3 -24 -12 -22 -29 -99
-33 -150 -1 -14 -6 -31 -11 -39 -6 -9 -5 -12 0 -8 6 3 11 -17 12 -49 1 -36 -3
-54 -11 -54 -108 -4 -170 -10 -181 -19 -7 -6 -15 -8 -18 -5 -4 3 -20 -2 -37
-11 -17 -8 -31 -13 -31 -9 0 4 -6 1 -13 -5 -8 -6 -17 -8 -20 -4 -4 3 -7 0 -7
-7 0 -7 -3 -10 -6 -7 -4 3 -18 -3 -32 -13 -13 -11 -30 -20 -37 -20 -6 0 -20
-9 -30 -20 -10 -11 -22 -20 -26 -20 -5 0 -25 -16 -45 -35 -19 -19 -41 -35 -47
-35 -5 0 -7 -3 -4 -7 4 -3 -5 -16 -18 -29 -14 -13 -25 -25 -24 -26 1 -2 -13
-25 -30 -53 -17 -27 -31 -54 -31 -60 -1 -5 -7 -19 -14 -30 -21 -32 -34 -93
-40 -182 -2 -28 -7 -56 -10 -61 -3 -6 -2 -13 3 -16 5 -4 8 -20 6 -36 -2 -16 0
-32 5 -35 4 -3 6 -14 3 -25 -3 -11 -1 -20 4 -20 5 0 10 -6 11 -12 0 -7 3 -24
7 -38 3 -14 7 -31 9 -38 1 -7 8 -18 14 -24 7 -7 12 -16 12 -20 0 -37 175 -238
208 -238 7 0 10 -4 7 -10 -3 -5 0 -10 7 -10 7 0 1 -8 -14 -18 -15 -10 -35 -28
-46 -40 -10 -12 -22 -19 -25 -16 -3 3 -8 -4 -12 -15 -3 -12 -10 -19 -15 -16
-5 3 -11 -3 -15 -14 -3 -11 -13 -22 -21 -25 -8 -3 -13 -10 -10 -15 3 -5 -1
-11 -9 -15 -8 -3 -15 -12 -15 -19 0 -8 -7 -20 -15 -27 -8 -7 -12 -16 -9 -21 3
-5 0 -9 -6 -9 -6 0 -8 -4 -5 -10 3 -5 1 -10 -5 -10 -6 0 -9 -4 -6 -9 4 -5 1
-11 -4 -13 -6 -2 -12 -10 -14 -18 -1 -8 -8 -31 -14 -51 -7 -20 -12 -41 -11
-45 3 -19 -1 -35 -8 -31 -9 6 -8 -175 2 -218 9 -42 13 -60 15 -60 1 0 3 -8 5
-17 7 -39 27 -88 35 -88 5 0 7 -7 4 -15 -4 -8 -1 -15 5 -15 6 0 11 -4 11 -9 0
-19 60 -99 115 -154 l55 -55 -22 -28 c-12 -16 -26 -32 -31 -35 -5 -3 -9 -13
-11 -21 -1 -9 -7 -22 -13 -29 -15 -19 -46 -90 -48 -111 -2 -10 -3 -19 -5 -20
-3 -5 -11 -42 -13 -65 -2 -12 -5 -24 -8 -27 -9 -10 1 -167 12 -188 7 -13 7
-18 1 -14 -16 10 34 -121 74 -191 19 -35 40 -63 46 -63 6 0 9 -3 6 -6 -8 -7
85 -98 122 -121 17 -9 30 -21 30 -25 0 -4 7 -8 15 -8 8 0 15 -4 15 -10 0 -5 7
-10 16 -10 27 0 46 -27 35 -48 -6 -11 -7 -22 -4 -26 3 -3 1 -6 -5 -6 -7 0 -11
-3 -11 -7 1 -5 1 -10 0 -13 -21 -54 -19 -314 1 -326 5 -3 6 -9 3 -14 -3 -5 -1
-11 5 -15 6 -4 8 -10 5 -15 -3 -5 -1 -11 5 -15 5 -3 10 -15 10 -26 0 -10 5
-19 10 -19 6 0 10 -9 10 -20 0 -11 3 -20 8 -20 4 0 13 -12 20 -27 7 -16 28
-45 47 -67 19 -21 35 -42 35 -47 0 -5 5 -9 10 -9 6 0 22 -11 35 -24 14 -14 38
-33 55 -42 16 -10 30 -22 30 -27 0 -4 4 -5 10 -2 6 3 10 1 10 -5 0 -6 5 -8 10
-5 6 3 10 1 10 -6 0 -7 3 -9 6 -6 4 4 20 -3 36 -14 16 -12 32 -18 35 -15 3 3
11 2 17 -3 13 -10 110 -34 146 -35 14 -1 31 -5 38 -9 6 -5 12 -4 12 0 0 5 15
8 33 6 43 -5 44 -5 111 7 32 6 67 15 77 21 11 5 19 7 19 3 0 -3 7 -1 15 6 8 7
15 9 15 5 0 -4 6 -2 13 4 8 6 17 8 20 4 4 -3 9 1 13 10 3 9 12 13 20 10 8 -3
14 0 14 6 0 6 5 11 11 11 34 0 200 147 233 206 9 16 20 36 25 44 28 50 41 80
35 80 -3 0 -1 6 5 14 6 7 12 25 13 40 3 31 22 45 53 40 48 -8 205 -3 205 7 0
4 8 7 18 7 32 -1 75 11 84 24 4 7 8 10 8 6 0 -11 81 26 130 59 24 15 50 33 58
38 28 18 101 96 119 126 10 16 21 29 26 29 4 0 5 5 2 10 -3 6 1 13 9 16 9 3
16 14 16 24 0 11 4 21 9 24 10 6 44 109 44 132 0 8 3 14 7 14 3 0 7 12 7 28 3
79 7 103 20 113 10 9 13 8 13 -1 0 -8 3 -11 6 -8 3 4 19 2 35 -2 16 -5 29 -5
29 0 0 5 12 3 27 -5 15 -8 30 -12 35 -9 5 3 43 7 86 9 68 3 122 9 130 15 3 3
13 6 50 15 18 4 35 12 38 16 3 5 10 7 15 4 5 -4 9 -2 9 3 0 8 27 21 53 26 4 0
12 8 17 16 5 8 10 11 10 7 0 -15 160 124 160 139 0 3 5 10 10 17 41 48 50 62
50 74 0 7 5 13 10 13 6 0 10 9 10 20 0 11 5 20 11 20 5 0 8 4 4 9 -3 5 0 13 6
16 5 4 8 13 5 21 -3 7 -1 16 3 19 9 5 25 69 24 98 0 9 4 17 10 17 5 0 5 5 -2
13 -6 8 -8 17 -4 21 10 10 11 66 1 66 -4 0 -2 11 4 25 10 22 18 25 72 27 105
2 194 21 257 53 16 9 29 13 29 10 0 -3 6 -1 13 5 26 22 87 59 87 53 0 -4 6 0
13 9 6 9 34 35 60 57 27 23 45 41 40 41 -4 0 4 11 19 24 15 12 25 25 23 28 -3
3 1 11 10 18 8 7 15 19 15 26 0 8 4 14 10 14 5 0 9 3 8 8 -1 4 4 20 10 35 7
16 12 33 12 38 0 6 5 7 12 3 8 -5 9 -2 5 9 -4 10 -2 17 5 17 7 0 7 4 -1 14 -9
11 -9 15 0 18 6 2 12 25 13 50 0 25 4 44 7 42 4 -2 5 27 4 64 -1 37 -3 67 -4
67 -1 0 -4 18 -6 40 -5 54 -10 74 -31 121 -9 21 -18 45 -20 52 -1 8 -10 22
-18 31 -9 10 -16 21 -16 25 0 8 -6 16 -55 71 -19 22 -35 43 -35 48 0 4 -6 7
-13 7 -7 0 -19 9 -27 21 -8 11 -27 27 -42 35 -26 13 -40 54 -19 54 5 0 12 8
15 18 13 35 33 62 42 54 5 -4 6 -3 2 1 -3 5 5 33 18 63 13 30 21 54 18 54 -4
0 -1 7 6 15 7 8 10 15 6 15 -3 0 -1 12 5 27 15 41 19 143 5 143 -7 0 -7 3 1 8
7 4 10 19 8 32 -3 14 -8 39 -11 55 -2 17 -10 48 -16 70 -6 22 -11 43 -10 48 1
4 -3 7 -8 7 -6 0 -10 9 -10 20 0 11 -4 20 -10 20 -5 0 -9 3 -8 8 10 30 -154
218 -214 245 -15 6 -28 14 -28 18 0 5 -53 30 -134 63 -21 9 -42 14 -46 11 -5
-3 -11 -1 -14 3 -5 9 -35 13 -116 16 -25 0 -48 6 -52 11 -5 7 -8 7 -8 0 0 -5
-17 -10 -38 -11 -48 -1 -97 -10 -145 -24 -50 -15 -62 -9 -66 31 -1 19 -4 45
-6 59 -2 14 -4 31 -4 38 -1 7 -5 11 -10 8 -5 -4 -7 3 -4 14 3 11 1 20 -4 20
-5 0 -10 6 -10 14 0 27 -74 144 -127 201 -31 32 -57 63 -58 69 -2 15 13 48 29
64 7 8 11 17 8 22 -3 4 1 10 9 13 8 3 22 21 31 40 9 19 25 44 36 56 11 11 17
21 14 21 -4 0 4 13 18 30 14 16 31 43 38 60 8 16 20 30 27 30 7 0 11 4 8 9 -3
4 3 19 14 31 11 13 20 29 20 37 0 8 5 11 10 8 6 -3 10 0 10 8 0 8 11 27 25 43
14 16 25 33 25 37 0 4 5 13 10 20 31 35 90 123 95 139 4 10 10 18 15 18 5 0
19 17 31 38 13 20 27 42 31 47 5 6 22 28 38 50 16 22 34 45 40 52 5 7 10 15
10 17 0 6 26 39 53 68 9 10 14 18 10 18 -3 0 4 8 15 19 12 10 19 21 16 24 -3
3 3 12 15 19 12 7 21 18 21 25 0 7 5 13 10 13 6 0 10 4 10 10 0 9 25 42 58 76
7 8 11 14 7 14 -3 0 5 11 19 24 15 13 26 29 26 35 0 7 5 9 10 6 6 -3 10 0 10
7 0 8 12 27 28 44 26 30 42 49 100 123 15 19 35 41 45 50 9 8 17 19 17 23 0 4
23 31 50 60 28 29 50 58 50 66 0 7 5 10 10 7 6 -3 10 -3 10 2 1 4 21 30 45 57
25 28 45 53 45 58 0 4 7 8 17 8 9 0 14 3 10 6 -3 3 23 34 57 70 35 35 61 66
58 69 -3 3 2 5 11 5 10 0 17 5 17 10 0 6 18 28 41 49 l40 40 -43 11 c-24 7
-51 14 -61 16 -16 3 -61 16 -107 32 -13 4 -33 9 -65 16 -5 1 -14 4 -20 7 -5 3
-30 11 -55 18 -51 15 -70 22 -121 44 -35 15 -35 15 -48 -14 -7 -16 -16 -27
-20 -24 -5 2 -13 -7 -19 -20 -7 -14 -16 -25 -22 -25 -6 0 -9 -4 -5 -9 3 -6 -4
-15 -15 -21 -11 -6 -20 -15 -20 -20 0 -5 -12 -22 -27 -38 -16 -16 -35 -39 -43
-52 -8 -12 -25 -33 -37 -46 -13 -13 -23 -25 -23 -28 0 -3 -10 -16 -22 -29 -23
-24 -81 -94 -108 -129 -8 -11 -25 -31 -38 -44 -13 -13 -21 -24 -18 -24 3 0
-18 -23 -47 -50 -78 -76 -83 -80 -91 -80 -4 0 -14 -6 -21 -12 -33 -30 -43 -37
-48 -32 -2 3 -20 -3 -38 -14 -57 -31 -134 -48 -258 -58 -36 -3 -67 -5 -70 -6
-44 -4 -52 16 -21 52 11 12 17 27 14 31 -3 5 1 9 8 9 8 0 14 8 15 18 1 9 9 37
18 62 10 25 17 57 17 72 0 15 3 30 8 33 5 3 7 12 3 21 -3 8 -7 38 -8 67 -1 29
-4 54 -5 57 -1 3 -3 10 -4 15 -10 53 -20 86 -27 91 -5 3 -7 9 -4 14 3 5 1 11
-5 15 -5 3 -10 15 -10 26 0 10 -5 19 -12 19 -6 0 -9 3 -5 6 5 6 -57 106 -87
141 -6 7 -22 27 -36 44 -14 18 -38 44 -54 58 -15 14 -48 45 -72 69 -24 23 -46
42 -50 42 -3 0 -24 15 -47 33 -23 19 -57 42 -74 53 -18 10 -33 21 -33 24 0 4
-16 12 -35 20 -19 8 -35 17 -35 22 0 4 -6 8 -13 8 -7 0 -28 11 -47 25 -18 13
-37 22 -41 19 -5 -3 -9 -1 -9 4 0 5 -18 14 -40 21 -22 6 -40 16 -40 21 0 6 -8
10 -17 10 -10 0 -31 9 -47 19 -16 11 -36 17 -44 13 -11 -4 -13 -2 -7 8 5 9 4
11 -4 6 -6 -4 -19 -2 -28 6 -15 11 -16 11 -8 -7z m862 -1438 c6 -4 14 -3 17 2
7 10 58 7 76 -4 8 -5 11 -4 7 2 -9 15 198 10 217 -6 14 -11 14 -15 1 -28 -8
-8 -15 -21 -15 -29 0 -8 -4 -14 -10 -14 -5 0 -10 -7 -10 -15 0 -8 -4 -15 -10
-15 -5 0 -10 -3 -9 -7 2 -16 -14 -53 -22 -53 -5 0 -9 -6 -9 -14 0 -7 -7 -19
-15 -26 -8 -7 -12 -16 -9 -21 3 -5 2 -9 -3 -9 -9 0 -39 -61 -35 -72 1 -5 -2
-8 -7 -8 -5 0 -20 -21 -33 -47 -13 -27 -29 -54 -35 -61 -12 -13 -16 -25 -10
-38 1 -3 -6 -10 -16 -15 -9 -6 -15 -14 -12 -20 4 -5 -1 -12 -9 -15 -9 -3 -13
-10 -10 -15 3 -5 0 -9 -6 -9 -6 0 -9 -4 -6 -9 3 -5 -1 -14 -9 -21 -8 -7 -13
-16 -10 -20 3 -4 -2 -13 -10 -20 -8 -7 -15 -17 -15 -22 0 -5 -7 -16 -15 -25
-8 -8 -13 -19 -10 -24 4 -5 2 -9 -4 -9 -6 0 -13 -11 -17 -25 -3 -14 -10 -25
-14 -25 -9 0 -25 -40 -22 -52 1 -5 -2 -8 -6 -8 -5 0 -21 -25 -36 -55 -14 -30
-31 -55 -36 -55 -6 0 -9 -3 -8 -7 3 -11 -42 -96 -54 -104 -5 -3 -10 -10 -10
-15 0 -23 -16 -37 -34 -29 -11 4 -41 9 -69 11 -27 3 -65 6 -82 8 -20 2 -33 -1
-33 -8 0 -6 -5 -4 -10 4 -5 8 -10 10 -10 4 0 -6 -15 -11 -32 -12 -18 0 -40 -2
-48 -4 -80 -20 -120 -33 -120 -40 0 -4 -9 -8 -19 -8 -11 0 -23 -5 -26 -10 -4
-6 -11 -8 -16 -5 -5 4 -12 -1 -15 -9 -3 -9 -10 -13 -15 -10 -5 3 -9 0 -9 -5 0
-6 -7 -11 -15 -11 -8 0 -15 -5 -15 -11 0 -5 -4 -8 -9 -5 -5 4 -11 1 -13 -5 -3
-8 -10 -6 -21 5 -9 10 -15 21 -13 25 3 4 -4 14 -15 21 -10 8 -19 18 -19 23 0
11 -131 137 -143 137 -4 0 -17 9 -29 20 -12 11 -30 20 -40 20 -10 0 -18 4 -18
9 0 4 -14 12 -32 17 -36 11 -55 41 -19 31 11 -3 21 -2 21 2 0 3 16 6 35 5 21
-1 35 3 35 10 0 7 4 6 9 -3 6 -10 13 -10 28 -3 11 6 28 10 38 8 10 -1 39 1 64
6 25 5 55 11 66 13 60 12 73 14 100 21 17 3 37 7 45 8 9 1 20 4 25 8 10 5 55
18 85 24 19 4 83 31 143 60 26 13 45 18 42 11 -4 -6 0 -4 8 5 8 10 17 15 20
11 4 -3 7 -1 7 5 0 9 22 21 42 22 4 0 20 12 34 25 15 14 33 25 40 25 7 0 18 9
24 20 6 11 15 20 20 20 13 0 50 37 43 43 -2 3 5 8 16 12 12 3 21 10 21 14 0 4
8 16 18 27 50 55 119 194 107 215 -4 5 -2 9 4 9 5 0 8 8 6 18 -1 9 2 22 7 29
5 7 5 14 -2 18 -7 4 -7 12 0 24 5 10 6 21 3 25 -3 3 -8 16 -9 28 -6 39 -9 53
-17 66 -5 7 -5 21 -2 32 6 20 35 24 62 7z"/>
</g>
</svg>
